<svg width="20" height="26" viewBox="0 0 20 26" fill="none" xmlns="http://www.w3.org/2000/svg">
<path d="M13.7457 3.95149C14.7102 2.90413 15.3626 1.45001 15.184 0C13.7945 0.0502988 12.1105 0.827343 11.1132 1.87461C10.2191 2.80175 9.43636 4.28351 9.64526 5.70508C11.1957 5.81147 12.7797 4.99715 13.7457 3.95149ZM16.7049 13.9653C16.6752 10.7145 19.2421 9.15322 19.3558 9.07777C17.9127 6.87024 15.6652 6.56818 14.8648 6.53411C12.951 6.33033 11.1333 7.70971 10.1617 7.70971C9.19405 7.70971 7.69731 6.56087 6.11009 6.59172C4.0235 6.6266 2.10087 7.85909 1.02921 9.81245C-1.13836 13.7421 0.473649 19.5633 2.58583 22.7507C3.61836 24.3112 4.84774 26.0616 6.46212 25.9983C8.0205 25.935 8.60798 24.9469 10.4881 24.9469C12.3691 24.9469 12.8957 25.9983 14.5413 25.9667C16.2158 25.935 17.2755 24.3762 18.2992 22.8108C19.4837 21.0012 19.972 19.2491 20 19.1606C19.964 19.1395 16.7392 17.8527 16.7049 13.9653Z" fill="#CCD0D2"/>
</svg>
