<svg width="15" height="13" viewBox="0 0 15 13" fill="none" xmlns="http://www.w3.org/2000/svg">
<path fill-rule="evenodd" clip-rule="evenodd" d="M5.86034 0.120035C6.12543 0.318858 6.17916 0.694939 5.98034 0.960035L2.20034 6.00004H14.2003C14.5317 6.00004 14.8003 6.26866 14.8003 6.60004C14.8003 6.93141 14.5317 7.20004 14.2003 7.20004H2.23847L5.97127 11.9282C6.1766 12.1883 6.13221 12.5656 5.87212 12.771C5.61204 12.9763 5.23474 12.9319 5.02941 12.6718L0.53739 6.98193C0.508221 6.94663 0.483578 6.90852 0.463586 6.86847C0.454898 6.85113 0.447028 6.83331 0.440021 6.81507C0.432523 6.79555 0.426099 6.77575 0.420738 6.75576C0.409639 6.71437 0.403293 6.67525 0.401224 6.63295C0.400326 6.61459 0.400077 6.59312 0.400858 6.57478C0.403229 6.5175 0.413633 6.46229 0.430972 6.41025C0.439221 6.38549 0.44904 6.36145 0.460311 6.33824C0.478739 6.30016 0.50135 6.26375 0.528058 6.22974L5.02034 0.240035C5.21916 -0.0250613 5.59524 -0.0787872 5.86034 0.120035Z" fill="#888888"/>
</svg>
