<svg width="24" height="24" viewBox="0 0 24 24" fill="none" xmlns="http://www.w3.org/2000/svg">
<g clip-path="url(#clip0_295_699)">
<path d="M12 24C18.6274 24 24 18.6274 24 12C24 5.37258 18.6274 0 12 0C5.37258 0 0 5.37258 0 12C0 18.6274 5.37258 24 12 24Z" fill="#3B5998"/>
<path d="M15.0168 12.4697H12.8755V20.3143H9.63132V12.4697H8.08838V9.71286H9.63132V7.92884C9.63132 6.65307 10.2373 4.65535 12.9044 4.65535L15.3075 4.6654V7.34143H13.5639C13.2779 7.34143 12.8757 7.48433 12.8757 8.09291V9.71542H15.3002L15.0168 12.4697Z" fill="white"/>
</g>
<defs>
<clipPath id="clip0_295_699">
<rect width="24" height="24" fill="white"/>
</clipPath>
</defs>
</svg>
