<svg width="18" height="20" viewBox="0 0 18 20" fill="none" xmlns="http://www.w3.org/2000/svg">
<path d="M15.0547 10.268V8.39844C15.0547 5.67102 13.2418 3.35934 10.7579 2.6043V1.75781C10.7579 0.788555 9.9693 0 9.00005 0C8.03079 0 7.24223 0.788555 7.24223 1.75781V2.6043C4.75825 3.35934 2.94536 5.67098 2.94536 8.39844V10.268C2.94536 12.6638 2.03216 14.9355 0.373991 16.6648C0.211491 16.8342 0.165827 17.0843 0.257936 17.3002C0.350046 17.5161 0.562155 17.6562 0.796921 17.6562H6.1293C6.40149 18.9919 7.58524 20 9.00005 20C10.4149 20 11.5986 18.9919 11.8708 17.6562H17.2032C17.4379 17.6562 17.65 17.5161 17.7421 17.3002C17.8342 17.0843 17.7886 16.8342 17.6261 16.6648C15.9679 14.9355 15.0547 12.6638 15.0547 10.268ZM8.41411 1.75781C8.41411 1.43473 8.67696 1.17188 9.00005 1.17188C9.32313 1.17188 9.58598 1.43473 9.58598 1.75781V2.37219C9.39313 2.35359 9.1977 2.34375 9.00005 2.34375C8.80239 2.34375 8.60696 2.35359 8.41411 2.37219V1.75781ZM9.00005 18.8281C8.23618 18.8281 7.58489 18.3382 7.34301 17.6562H10.6571C10.4152 18.3382 9.76391 18.8281 9.00005 18.8281ZM2.05981 16.4844C3.39423 14.6956 4.11723 12.5309 4.11723 10.268V8.39844C4.11723 5.70605 6.30766 3.51562 9.00005 3.51562C11.6924 3.51562 13.8829 5.70605 13.8829 8.39844V10.268C13.8829 12.5309 14.6059 14.6956 15.9403 16.4844H2.05981Z" fill="#F26B26"/>
</svg>
